<svg width="498" height="301" viewBox="0 0 498 301" fill="none" xmlns="http://www.w3.org/2000/svg">
<path d="M47 40V41H456V40V39H47V40ZM458 42H457V250H458H459V42H458ZM456 252V251H47V252V253H456V252ZM45 250H46V42H45H44V250H45ZM47 252V251C46.4477 251 46 250.552 46 250H45H44C44 251.657 45.3432 253 47 253V252ZM458 250H457C457 250.552 456.552 251 456 251V252V253C457.657 253 459 251.657 459 250H458ZM456 40V41C456.552 41 457 41.4477 457 42H458H459C459 40.3431 457.657 39 456 39V40ZM47 40V39C45.3431 39 44 40.3432 44 42H45H46C46 41.4477 46.4477 41 47 41V40Z" fill="white" fill-opacity="0.1"/>
<path d="M123.434 56.3989C123.434 54.3989 123.434 48.9999 123.434 44C109.676 44 100.176 45.4999 86.1764 53.4999C72.6764 59.4999 59.6713 77.0956 54.1764 92.5C48.6816 107.904 50.2776 129.796 50.1764 144.5H86.1764C86.4124 135.661 84.6764 104.5 90.1764 97.5C95.1764 89 97.1764 86.5 104.676 82C104.676 82 109.676 78 123.434 77.4999C123.434 77.4999 123.434 72.3989 123.434 70.3989V56.3989Z" fill="white"/>
<path d="M123.788 232.121C123.788 234.121 123.788 239.52 123.788 244.52C137.547 244.52 147.047 243.02 161.047 235.02C174.547 229.02 187.552 211.424 193.047 196.02C198.542 180.615 196.946 158.724 197.047 144.02H161.047C160.81 152.859 162.547 184.02 157.047 191.02C152.047 199.52 150.047 202.02 142.547 206.52C142.547 206.52 137.547 210.52 123.788 211.02C123.788 211.02 123.788 216.121 123.788 218.121V232.121Z" fill="#10B981"/>
<path d="M123.788 56.5184C123.788 54.5184 123.788 49.1194 123.788 44.1194C137.547 44.1194 147.047 45.6194 161.047 53.6194C174.547 59.6194 187.552 77.215 193.047 92.6194C198.542 108.024 196.946 129.915 197.047 144.619H161.047C160.81 135.78 162.547 104.619 157.047 97.6194C152.047 89.1194 150.047 86.6194 142.547 82.1194C142.547 82.1194 137.547 78.1194 123.788 77.6194C123.788 77.6194 123.788 72.5184 123.788 70.5184V56.5184Z" fill="#10B981"/>
<path d="M123.399 232.121C123.399 234.121 123.399 239.52 123.399 244.52C109.64 244.52 100.14 243.02 86.1404 235.02C72.6407 229.02 59.6356 211.424 54.1407 196.02C48.6459 180.616 50.2419 158.724 50.1407 144.02H86.1404C86.3774 152.859 84.6404 184.02 90.1404 191.02C95.1404 199.52 97.1404 202.02 104.64 206.52C104.64 206.52 109.64 210.52 123.399 211.02C123.399 211.02 123.399 216.121 123.399 218.121V232.121Z" fill="#7C3AED"/>
<g filter="url(#filter0_dd_0_1)">
<path d="M123.434 56.3989C123.434 54.3989 123.434 48.9999 123.434 44C109.676 44 100.176 45.4999 86.1764 53.4999C72.6764 59.4999 59.6713 77.0956 54.1764 92.5C48.6816 107.904 50.2776 129.796 50.1764 144.5H86.1764C86.4124 135.661 84.6764 104.5 90.1764 97.5C95.1764 89 97.1764 86.5 104.676 82C104.676 82 109.676 78 123.434 77.4999C123.434 77.4999 123.434 72.3989 123.434 70.3989V56.3989Z" fill="#E6E6E6"/>
<path d="M124.187 232.183C124.187 234.173 124.187 239.545 124.187 244.52C137.871 244.52 147.319 243.027 161.243 235.067C174.67 229.097 187.604 211.589 193.069 196.261C198.534 180.933 196.947 159.151 197.048 144.52H161.243C161.008 153.315 162.735 184.321 157.265 191.286C152.292 199.744 150.303 202.231 142.844 206.709C142.844 206.709 137.871 210.689 124.187 211.187C124.187 211.187 124.187 216.262 124.187 218.252V232.183Z" fill="#10B981"/>
<path d="M123.788 56.5184C123.788 54.5184 123.788 49.1194 123.788 44.1194C137.547 44.1194 147.047 45.6194 161.047 53.6194C174.547 59.6194 187.552 77.215 193.047 92.6194C198.542 108.024 196.946 129.915 197.047 144.619H161.047C160.81 135.78 162.547 104.619 157.047 97.6194C152.047 89.1194 150.047 86.6194 142.547 82.1194C142.547 82.1194 137.547 78.1194 123.788 77.6194C123.788 77.6194 123.788 72.5184 123.788 70.5184V56.5184Z" fill="#10B981"/>
<path d="M123.399 232.183C123.399 234.173 123.399 239.545 123.399 244.52C109.64 244.52 100.14 243.027 86.1404 235.067C72.6407 229.097 59.6356 211.589 54.1407 196.261C48.6459 180.933 50.2419 159.151 50.1407 144.52H86.1404C86.3774 153.315 84.6404 184.321 90.1404 191.286C95.1404 199.744 97.1404 202.231 104.64 206.709C104.64 206.709 109.64 210.689 123.399 211.187C123.399 211.187 123.399 216.262 123.399 218.252V232.183Z" fill="#FF383C" fill-opacity="0.14"/>
</g>
<path d="M216 166.096V120.904H229.781C233.287 120.904 236.408 121.808 239.143 123.615C241.878 125.401 244.026 127.983 245.586 131.363C247.147 134.72 247.927 138.765 247.927 143.5C247.927 148.235 247.147 152.291 245.586 155.67C244.026 159.027 241.878 161.609 239.143 163.417C236.408 165.203 233.287 166.096 229.781 166.096H216ZM222.733 158.736H229.781C232.165 158.736 234.155 158.123 235.751 156.896C237.346 155.67 238.547 153.916 239.354 151.635C240.16 149.353 240.563 146.641 240.563 143.5C240.563 140.359 240.16 137.647 239.354 135.365C238.547 133.084 237.346 131.33 235.751 130.104C234.155 128.877 232.165 128.264 229.781 128.264H222.733V158.736ZM273.332 155.379H257.921V148.148H273.332V155.379ZM264.759 128.974H266.494L255.87 166.096H249.348L262.444 120.904H268.809L281.905 166.096H275.383L264.759 128.974ZM291.191 166.096V147.826L278.252 120.904H285.616L296.135 143.823H292.979L303.499 120.904H310.863L297.924 147.826V166.096H291.191ZM322.652 166.096L341.482 125.681L342.639 128.264H325.019V120.904H350.687L331.857 161.319L330.699 158.736H350.424V166.096H322.652ZM355.097 166.096V120.904H378.66V128.909H361.987V138.529H374.926V146.534H361.987V158.091H379.186V166.096H355.097ZM384.991 166.096V120.904H398.456C400.999 120.904 403.217 121.398 405.11 122.389C407.022 123.379 408.503 124.885 409.555 126.908C410.607 128.931 411.133 131.492 411.133 134.591C411.133 137.905 410.554 140.54 409.397 142.499C408.258 144.436 406.75 145.975 404.873 147.115L413.184 166.096H405.662L398.562 149.31C398.509 149.31 398.466 149.31 398.43 149.31C398.395 149.31 398.351 149.31 398.299 149.31H391.724V166.096H384.991ZM391.724 142.402H396.668C399.439 142.402 401.367 141.714 402.454 140.337C403.542 138.938 404.084 137.173 404.084 135.043C404.084 132.783 403.55 131.018 402.48 129.749C401.411 128.457 399.561 127.812 396.931 127.812H391.724V142.402ZM433.854 167C430.348 167 427.226 166.032 424.491 164.095C421.756 162.136 419.609 159.404 418.048 155.896C416.488 152.367 415.707 148.235 415.707 143.5C415.707 138.765 416.488 134.645 418.048 131.137C419.609 127.608 421.756 124.874 424.491 122.937C427.226 120.979 430.348 120 433.854 120C437.361 120 440.481 120.979 443.216 122.937C445.951 124.874 448.099 127.608 449.659 131.137C451.221 134.645 452 138.765 452 143.5C452 148.235 451.221 152.367 449.659 155.896C448.099 159.404 445.951 162.136 443.216 164.095C440.481 166.032 437.361 167 433.854 167ZM433.854 158.995C436.309 158.995 438.36 158.327 440.008 156.993C441.656 155.659 442.892 153.83 443.716 151.505C444.541 149.159 444.952 146.492 444.952 143.5C444.952 140.508 444.541 137.851 443.716 135.527C442.892 133.181 441.656 131.341 440.008 130.007C438.36 128.673 436.309 128.005 433.854 128.005C431.4 128.005 429.348 128.673 427.7 130.007C426.052 131.341 424.816 133.181 423.992 135.527C423.168 137.851 422.755 140.508 422.755 143.5C422.755 146.492 423.168 149.159 423.992 151.505C424.816 153.83 426.052 155.659 427.7 156.993C429.348 158.327 431.4 158.995 433.854 158.995Z" fill="#504C4C"/>
<defs>
<filter id="filter0_dd_0_1" x="40" y="40" width="167.188" height="220.52" filterUnits="userSpaceOnUse" color-interpolation-filters="sRGB">
<feFlood flood-opacity="0" result="BackgroundImageFix"/>
<feColorMatrix in="SourceAlpha" type="matrix" values="0 0 0 0 0 0 0 0 0 0 0 0 0 0 0 0 0 0 127 0" result="hardAlpha"/>
<feOffset dy="2"/>
<feGaussianBlur stdDeviation="1.5"/>
<feColorMatrix type="matrix" values="0 0 0 0 0 0 0 0 0 0 0 0 0 0 0 0 0 0 0.3 0"/>
<feBlend mode="normal" in2="BackgroundImageFix" result="effect1_dropShadow_0_1"/>
<feColorMatrix in="SourceAlpha" type="matrix" values="0 0 0 0 0 0 0 0 0 0 0 0 0 0 0 0 0 0 127 0" result="hardAlpha"/>
<feOffset dy="6"/>
<feGaussianBlur stdDeviation="5"/>
<feColorMatrix type="matrix" values="0 0 0 0 0 0 0 0 0 0 0 0 0 0 0 0 0 0 0.15 0"/>
<feBlend mode="normal" in2="effect1_dropShadow_0_1" result="effect2_dropShadow_0_1"/>
<feBlend mode="normal" in="SourceGraphic" in2="effect2_dropShadow_0_1" result="shape"/>
</filter>
</defs>
</svg>
