<svg width="562" height="287" viewBox="0 0 562 287" fill="none" xmlns="http://www.w3.org/2000/svg">
<path d="M218 172.712V108.288H235.635C240.122 108.288 244.115 109.577 247.615 112.154C251.115 114.699 253.864 118.381 255.861 123.198C257.857 127.984 258.856 133.75 258.856 140.5C258.856 147.25 257.857 153.031 255.861 157.848C253.864 162.634 251.115 166.315 247.615 168.892C244.115 171.438 240.122 172.712 235.635 172.712H218ZM226.615 162.22H235.635C238.686 162.22 241.232 161.345 243.274 159.597C245.316 157.848 246.852 155.349 247.885 152.096C248.917 148.844 249.433 144.978 249.433 140.5C249.433 136.022 248.917 132.156 247.885 128.904C246.852 125.651 245.316 123.152 243.274 121.403C241.232 119.655 238.686 118.78 235.635 118.78H226.615V162.22ZM291.365 157.434H271.645V147.126H291.365V157.434ZM280.395 119.793H282.616L269.02 172.712H260.673L277.433 108.288H285.577L302.336 172.712H293.99L280.395 119.793ZM314.219 172.712V146.666L297.661 108.288H307.085L320.546 140.96H316.508L329.969 108.288H339.392L322.835 146.666V172.712H314.219ZM354.478 172.712L378.574 115.099L380.055 118.78H357.507V108.288H390.353L366.257 165.901L364.776 162.22H390.017V172.712H354.478ZM395.996 172.712V108.288H426.15V119.701H404.814V133.413H421.371V144.826H404.814V161.299H426.823V172.712H395.996ZM434.252 172.712V108.288H451.482C454.736 108.288 457.574 108.993 459.997 110.405C462.443 111.817 464.338 113.963 465.684 116.847C467.03 119.732 467.703 123.382 467.703 127.799C467.703 132.525 466.963 136.281 465.482 139.073C464.025 141.834 462.096 144.029 459.694 145.654L470.328 172.712H460.704L451.617 148.783C451.55 148.783 451.495 148.783 451.449 148.783C451.404 148.783 451.348 148.783 451.28 148.783H442.867V172.712H434.252ZM442.867 138.935H449.194C452.74 138.935 455.207 137.954 456.598 135.99C457.99 133.997 458.684 131.481 458.684 128.444C458.684 125.223 458 122.706 456.631 120.897C455.264 119.056 452.896 118.136 449.53 118.136H442.867V138.935ZM496.779 174C492.292 174 488.298 172.619 484.798 169.858C481.298 167.066 478.551 163.171 476.553 158.17C474.557 153.14 473.558 147.25 473.558 140.5C473.558 133.75 474.557 127.877 476.553 122.876C478.551 117.845 481.298 113.948 484.798 111.187C488.298 108.395 492.292 107 496.779 107C501.267 107 505.26 108.395 508.76 111.187C512.26 113.948 515.009 117.845 517.005 122.876C519.003 127.877 520 133.75 520 140.5C520 147.25 519.003 153.14 517.005 158.17C515.009 163.171 512.26 167.066 508.76 169.858C505.26 172.619 501.267 174 496.779 174ZM496.779 162.588C499.921 162.588 502.546 161.636 504.654 159.735C506.763 157.834 508.345 155.225 509.399 151.912C510.455 148.568 510.981 144.765 510.981 140.5C510.981 136.235 510.455 132.447 509.399 129.134C508.345 125.789 506.763 123.166 504.654 121.265C502.546 119.364 499.921 118.412 496.779 118.412C493.638 118.412 491.013 119.364 488.904 121.265C486.796 123.166 485.214 125.789 484.159 129.134C483.105 132.447 482.577 136.235 482.577 140.5C482.577 144.765 483.105 148.568 484.159 151.912C485.214 155.225 486.796 157.834 488.904 159.735C491.013 161.636 493.638 162.588 496.779 162.588Z" fill="#595959"/>
<g filter="url(#filter0_d_12_146)">
<path d="M116.399 53.3989C116.399 51.3989 116.399 45.9999 116.399 41C102.641 41 93.1407 42.4999 79.1407 50.4999C65.6407 56.4999 52.6356 74.0956 47.1407 89.5C41.6459 104.904 43.2419 126.796 43.1407 141.5H79.1407C79.3767 132.661 77.6407 101.5 83.1407 94.5C88.1407 86 90.1407 83.5 97.6407 79C97.6407 79 102.641 75 116.399 74.4999C116.399 74.4999 116.399 69.3989 116.399 67.3989V53.3989Z" fill="#E6E6E6"/>
<path d="M117 229.54C117 231.55 117 236.975 117 242C130.684 242 140.132 240.492 154.056 232.452C167.483 226.423 180.416 208.74 185.881 193.258C191.346 177.777 189.759 155.777 189.86 141H154.056C153.821 149.883 155.548 181.199 150.078 188.234C145.105 196.776 143.116 199.288 135.657 203.811C135.657 203.811 130.684 207.831 117 208.334C117 208.334 117 213.459 117 215.469V229.54Z" fill="#9E7C0B"/>
<path d="M117 53.4607C117 51.4507 117 46.0249 117 41C130.684 41 140.132 42.5075 154.056 50.5473C167.482 56.5771 180.417 74.2602 185.882 89.7412C191.347 105.222 189.759 127.223 189.86 142H154.056C153.82 133.117 155.548 101.801 150.078 94.7661C145.105 86.2238 143.116 83.7114 135.657 79.189C135.657 79.189 130.684 75.1691 117 74.6666C117 74.6666 117 69.5403 117 67.5303V53.4607Z" fill="#9E7C0B"/>
<path d="M116.399 229.663C116.399 231.653 116.399 237.025 116.399 242C102.64 242 93.1404 240.507 79.1404 232.547C65.6407 226.577 52.6356 209.069 47.1407 193.741C41.6459 178.413 43.2419 156.631 43.1407 142H79.1404C79.3774 150.795 77.6404 181.801 83.1404 188.766C88.1404 197.224 90.1404 199.711 97.6404 204.189C97.6404 204.189 102.64 208.169 116.399 208.667C116.399 208.667 116.399 213.742 116.399 215.732V229.663Z" fill="#4A6608"/>
</g>
<defs>
<filter id="filter0_d_12_146" x="40" y="40" width="153" height="207" filterUnits="userSpaceOnUse" color-interpolation-filters="sRGB">
<feFlood flood-opacity="0" result="BackgroundImageFix"/>
<feColorMatrix in="SourceAlpha" type="matrix" values="0 0 0 0 0 0 0 0 0 0 0 0 0 0 0 0 0 0 127 0" result="hardAlpha"/>
<feOffset dy="2"/>
<feGaussianBlur stdDeviation="1.5"/>
<feColorMatrix type="matrix" values="0 0 0 0 0 0 0 0 0 0 0 0 0 0 0 0 0 0 0.3 0"/>
<feBlend mode="normal" in2="BackgroundImageFix" result="effect1_dropShadow_12_146"/>
<feBlend mode="normal" in="SourceGraphic" in2="effect1_dropShadow_12_146" result="shape"/>
</filter>
</defs>
</svg>
