<svg width="498" height="301" viewBox="0 0 498 301" fill="none" xmlns="http://www.w3.org/2000/svg">
<path d="M45 42C45 40.8954 45.8954 40 47 40H456C457.105 40 458 40.8954 458 42V250C458 251.105 457.105 252 456 252H47C45.8954 252 45 251.105 45 250V42Z" fill="black"/>
<path d="M47 40V41H456V40V39H47V40ZM458 42H457V250H458H459V42H458ZM456 252V251H47V252V253H456V252ZM45 250H46V42H45H44V250H45ZM47 252V251C46.4477 251 46 250.552 46 250H45H44C44 251.657 45.3432 253 47 253V252ZM458 250H457C457 250.552 456.552 251 456 251V252V253C457.657 253 459 251.657 459 250H458ZM456 40V41C456.552 41 457 41.4477 457 42H458H459C459 40.3431 457.657 39 456 39V40ZM47 40V39C45.3431 39 44 40.3432 44 42H45H46C46 41.4477 46.4477 41 47 41V40Z" fill="white" fill-opacity="0.1"/>
<path d="M123.434 56.3989C123.434 54.3989 123.434 48.9999 123.434 44C109.676 44 100.176 45.4999 86.1764 53.4999C72.6764 59.4999 59.6713 77.0956 54.1764 92.5C48.6816 107.904 50.2776 129.796 50.1764 144.5H86.1764C86.4124 135.661 84.6764 104.5 90.1764 97.5C95.1764 89 97.1764 86.5 104.676 82C104.676 82 109.676 78 123.434 77.4999C123.434 77.4999 123.434 72.3989 123.434 70.3989V56.3989Z" fill="white"/>
<path d="M123.788 232.121C123.788 234.121 123.788 239.52 123.788 244.52C137.547 244.52 147.047 243.02 161.047 235.02C174.547 229.02 187.552 211.424 193.047 196.02C198.542 180.615 196.946 158.724 197.047 144.02H161.047C160.81 152.859 162.547 184.02 157.047 191.02C152.047 199.52 150.047 202.02 142.547 206.52C142.547 206.52 137.547 210.52 123.788 211.02C123.788 211.02 123.788 216.121 123.788 218.121V232.121Z" fill="#10B981"/>
<path d="M123.788 56.5184C123.788 54.5184 123.788 49.1194 123.788 44.1194C137.547 44.1194 147.047 45.6194 161.047 53.6194C174.547 59.6194 187.552 77.215 193.047 92.6194C198.542 108.024 196.946 129.915 197.047 144.619H161.047C160.81 135.78 162.547 104.619 157.047 97.6194C152.047 89.1194 150.047 86.6194 142.547 82.1194C142.547 82.1194 137.547 78.1194 123.788 77.6194C123.788 77.6194 123.788 72.5184 123.788 70.5184V56.5184Z" fill="#10B981"/>
<path d="M123.399 232.121C123.399 234.121 123.399 239.52 123.399 244.52C109.64 244.52 100.14 243.02 86.1404 235.02C72.6407 229.02 59.6356 211.424 54.1407 196.02C48.6459 180.616 50.2419 158.724 50.1407 144.02H86.1404C86.3774 152.859 84.6404 184.02 90.1404 191.02C95.1404 199.52 97.1404 202.02 104.64 206.52C104.64 206.52 109.64 210.52 123.399 211.02C123.399 211.02 123.399 216.121 123.399 218.121V232.121Z" fill="#7C3AED"/>
<g filter="url(#filter0_dd_12_146)">
<path d="M123.434 56.3989C123.434 54.3989 123.434 48.9999 123.434 44C109.676 44 100.176 45.4999 86.1764 53.4999C72.6764 59.4999 59.6713 77.0956 54.1764 92.5C48.6816 107.904 50.2776 129.796 50.1764 144.5H86.1764C86.4124 135.661 84.6764 104.5 90.1764 97.5C95.1764 89 97.1764 86.5 104.676 82C104.676 82 109.676 78 123.434 77.4999C123.434 77.4999 123.434 72.3989 123.434 70.3989V56.3989Z" fill="#E6E6E6"/>
<path d="M124.187 232.183C124.187 234.173 124.187 239.545 124.187 244.52C137.871 244.52 147.319 243.027 161.243 235.067C174.67 229.097 187.604 211.589 193.069 196.261C198.534 180.933 196.947 159.151 197.048 144.52H161.243C161.008 153.315 162.735 184.321 157.265 191.286C152.292 199.744 150.303 202.231 142.844 206.709C142.844 206.709 137.871 210.689 124.187 211.187C124.187 211.187 124.187 216.262 124.187 218.252V232.183Z" fill="#10B981"/>
<path d="M123.788 56.5184C123.788 54.5184 123.788 49.1194 123.788 44.1194C137.547 44.1194 147.047 45.6194 161.047 53.6194C174.547 59.6194 187.552 77.215 193.047 92.6194C198.542 108.024 196.946 129.915 197.047 144.619H161.047C160.81 135.78 162.547 104.619 157.047 97.6194C152.047 89.1194 150.047 86.6194 142.547 82.1194C142.547 82.1194 137.547 78.1194 123.788 77.6194C123.788 77.6194 123.788 72.5184 123.788 70.5184V56.5184Z" fill="#10B981"/>
<path d="M123.399 232.183C123.399 234.173 123.399 239.545 123.399 244.52C109.64 244.52 100.14 243.027 86.1404 235.067C72.6407 229.097 59.6356 211.589 54.1407 196.261C48.6459 180.933 50.2419 159.151 50.1407 144.52H86.1404C86.3774 153.315 84.6404 184.321 90.1404 191.286C95.1404 199.744 97.1404 202.231 104.64 206.709C104.64 206.709 109.64 210.689 123.399 211.187C123.399 211.187 123.399 216.262 123.399 218.252V232.183Z" fill="#FF383C" fill-opacity="0.14"/>
</g>
<path d="M216 168.096V122.904H229.781C233.287 122.904 236.408 123.808 239.143 125.615C241.878 127.401 244.026 129.983 245.586 133.363C247.147 136.72 247.927 140.765 247.927 145.5C247.927 150.235 247.147 154.291 245.586 157.67C244.026 161.027 241.878 163.609 239.143 165.417C236.408 167.203 233.287 168.096 229.781 168.096H216ZM222.733 160.736H229.781C232.165 160.736 234.155 160.123 235.751 158.896C237.346 157.67 238.547 155.916 239.354 153.635C240.16 151.353 240.563 148.641 240.563 145.5C240.563 142.359 240.16 139.647 239.354 137.365C238.547 135.084 237.346 133.33 235.751 132.104C234.155 130.877 232.165 130.264 229.781 130.264H222.733V160.736ZM273.332 157.379H257.921V150.148H273.332V157.379ZM264.759 130.974H266.494L255.87 168.096H249.348L262.444 122.904H268.809L281.905 168.096H275.383L264.759 130.974ZM291.191 168.096V149.826L278.252 122.904H285.616L296.135 145.823H292.979L303.499 122.904H310.863L297.924 149.826V168.096H291.191ZM322.652 168.096L341.482 127.681L342.639 130.264H325.019V122.904H350.687L331.857 163.319L330.699 160.736H350.424V168.096H322.652ZM355.097 168.096V122.904H378.66V130.909H361.987V140.529H374.926V148.534H361.987V160.091H379.186V168.096H355.097ZM384.991 168.096V122.904H398.456C400.999 122.904 403.217 123.398 405.11 124.389C407.022 125.379 408.503 126.885 409.555 128.908C410.607 130.931 411.133 133.492 411.133 136.591C411.133 139.905 410.554 142.54 409.397 144.499C408.258 146.436 406.75 147.975 404.873 149.115L413.184 168.096H405.662L398.562 151.31C398.509 151.31 398.466 151.31 398.43 151.31C398.395 151.31 398.351 151.31 398.299 151.31H391.724V168.096H384.991ZM391.724 144.402H396.668C399.439 144.402 401.367 143.714 402.454 142.337C403.542 140.938 404.084 139.173 404.084 137.043C404.084 134.783 403.55 133.018 402.48 131.749C401.411 130.457 399.561 129.812 396.931 129.812H391.724V144.402ZM433.854 169C430.348 169 427.226 168.032 424.491 166.095C421.756 164.136 419.609 161.404 418.048 157.896C416.488 154.367 415.707 150.235 415.707 145.5C415.707 140.765 416.488 136.645 418.048 133.137C419.609 129.608 421.756 126.874 424.491 124.937C427.226 122.979 430.348 122 433.854 122C437.361 122 440.481 122.979 443.216 124.937C445.951 126.874 448.099 129.608 449.659 133.137C451.221 136.645 452 140.765 452 145.5C452 150.235 451.221 154.367 449.659 157.896C448.099 161.404 445.951 164.136 443.216 166.095C440.481 168.032 437.361 169 433.854 169ZM433.854 160.995C436.309 160.995 438.36 160.327 440.008 158.993C441.656 157.659 442.892 155.83 443.716 153.505C444.541 151.159 444.952 148.492 444.952 145.5C444.952 142.508 444.541 139.851 443.716 137.527C442.892 135.181 441.656 133.341 440.008 132.007C438.36 130.673 436.309 130.005 433.854 130.005C431.4 130.005 429.348 130.673 427.7 132.007C426.052 133.341 424.816 135.181 423.992 137.527C423.168 139.851 422.755 142.508 422.755 145.5C422.755 148.492 423.168 151.159 423.992 153.505C424.816 155.83 426.052 157.659 427.7 158.993C429.348 160.327 431.4 160.995 433.854 160.995Z" fill="#504C4C"/>
<rect x="45" y="4" width="60.9167" height="30" rx="3" fill="black"/>
<rect x="45.5" y="4.5" width="59.9167" height="29" rx="2.5" stroke="white" stroke-opacity="0.0980392"/>
<path d="M56.3438 16C56.2969 15.6042 56.1068 15.2969 55.7734 15.0781C55.4401 14.8594 55.0313 14.75 54.5469 14.75C54.1927 14.75 53.8828 14.8073 53.6172 14.9219C53.3542 15.0365 53.1484 15.194 53 15.3945C52.8542 15.5951 52.7813 15.8229 52.7813 16.0781C52.7813 16.2917 52.832 16.4753 52.9336 16.6289C53.0378 16.7799 53.1706 16.9062 53.332 17.0078C53.4935 17.1068 53.6628 17.1888 53.8398 17.2539C54.0169 17.3164 54.1797 17.3672 54.3281 17.4062L55.1406 17.625C55.349 17.6797 55.5807 17.7552 55.8359 17.8516C56.0938 17.9479 56.3398 18.0794 56.5742 18.2461C56.8112 18.4102 57.0065 18.6211 57.1602 18.8789C57.3138 19.1367 57.3906 19.4531 57.3906 19.8281C57.3906 20.2604 57.2773 20.651 57.0508 21C56.8268 21.349 56.4987 21.6263 56.0664 21.832C55.6367 22.0378 55.1146 22.1406 54.5 22.1406C53.9271 22.1406 53.431 22.0482 53.0117 21.8633C52.5951 21.6784 52.2669 21.4206 52.0273 21.0898C51.7904 20.7591 51.6563 20.375 51.625 19.9375H52.625C52.651 20.2396 52.7526 20.4896 52.9297 20.6875C53.1094 20.8828 53.3359 21.0286 53.6094 21.125C53.8854 21.2187 54.1823 21.2656 54.5 21.2656C54.8698 21.2656 55.2018 21.2057 55.4961 21.0859C55.7904 20.9635 56.0234 20.7943 56.1953 20.5781C56.3672 20.3594 56.4531 20.1042 56.4531 19.8125C56.4531 19.5469 56.3789 19.3307 56.2305 19.1641C56.082 18.9974 55.8867 18.862 55.6445 18.7578C55.4023 18.6536 55.1406 18.5625 54.8594 18.4844L53.875 18.2031C53.25 18.0234 52.7552 17.7669 52.3906 17.4336C52.026 17.1003 51.8438 16.6641 51.8438 16.125C51.8438 15.6771 51.9648 15.2865 52.207 14.9531C52.4518 14.6172 52.7799 14.3568 53.1914 14.1719C53.6055 13.9844 54.0677 13.8906 54.5781 13.8906C55.0938 13.8906 55.5521 13.9831 55.9531 14.168C56.3542 14.3503 56.6719 14.6003 56.9062 14.918C57.1432 15.2357 57.2682 15.5964 57.2813 16H56.3438ZM61.374 22.125C60.7959 22.125 60.2972 21.9974 59.8779 21.7422C59.4613 21.4844 59.1396 21.125 58.9131 20.6641C58.6891 20.2005 58.5771 19.6615 58.5771 19.0469C58.5771 18.4323 58.6891 17.8906 58.9131 17.4219C59.1396 16.9505 59.4548 16.5833 59.8584 16.3203C60.2646 16.0547 60.7386 15.9219 61.2803 15.9219C61.5928 15.9219 61.9014 15.974 62.2061 16.0781C62.5107 16.1823 62.7881 16.3516 63.0381 16.5859C63.2881 16.8177 63.4873 17.125 63.6357 17.5078C63.7842 17.8906 63.8584 18.362 63.8584 18.9219V19.3125H59.2334V18.5156H62.9209C62.9209 18.1771 62.8532 17.875 62.7178 17.6094C62.585 17.3437 62.3949 17.1341 62.1475 16.9805C61.9027 16.8268 61.6136 16.75 61.2803 16.75C60.9131 16.75 60.5954 16.8411 60.3271 17.0234C60.0615 17.2031 59.8571 17.4375 59.7139 17.7266C59.5706 18.0156 59.499 18.3255 59.499 18.6562V19.1875C59.499 19.6406 59.5771 20.0247 59.7334 20.3398C59.8923 20.6523 60.1123 20.8906 60.3936 21.0547C60.6748 21.2161 61.0016 21.2969 61.374 21.2969C61.6162 21.2969 61.835 21.263 62.0303 21.1953C62.2282 21.125 62.3988 21.0208 62.542 20.8828C62.6852 20.7422 62.7959 20.5677 62.874 20.3594L63.7646 20.6094C63.6709 20.9115 63.5133 21.1771 63.292 21.4062C63.0706 21.6328 62.7972 21.8099 62.4717 21.9375C62.1462 22.0625 61.7803 22.125 61.374 22.125ZM67.6982 22.125C67.1357 22.125 66.6514 21.9922 66.2451 21.7266C65.8389 21.4609 65.5264 21.0951 65.3076 20.6289C65.0889 20.1628 64.9795 19.6302 64.9795 19.0312C64.9795 18.4219 65.0915 17.8841 65.3154 17.418C65.542 16.9492 65.8571 16.5833 66.2607 16.3203C66.667 16.0547 67.141 15.9219 67.6826 15.9219C68.1045 15.9219 68.4847 16 68.8232 16.1562C69.1618 16.3125 69.4391 16.5312 69.6553 16.8125C69.8714 17.0937 70.0055 17.4219 70.0576 17.7969H69.1357C69.0654 17.5234 68.9092 17.2812 68.667 17.0703C68.4274 16.8568 68.1045 16.75 67.6982 16.75C67.3389 16.75 67.0238 16.8437 66.7529 17.0312C66.4847 17.2161 66.2751 17.4779 66.124 17.8164C65.9756 18.1523 65.9014 18.5469 65.9014 19C65.9014 19.4635 65.9743 19.8672 66.1201 20.2109C66.2686 20.5547 66.4769 20.8216 66.7451 21.0117C67.016 21.2018 67.3337 21.2969 67.6982 21.2969C67.9378 21.2969 68.1553 21.2552 68.3506 21.1719C68.5459 21.0885 68.7113 20.9688 68.8467 20.8125C68.9821 20.6562 69.0785 20.4687 69.1357 20.25H70.0576C70.0055 20.6042 69.8766 20.9232 69.6709 21.207C69.4678 21.4883 69.1982 21.7122 68.8623 21.8789C68.529 22.043 68.141 22.125 67.6982 22.125ZM74.0146 16V16.7812H70.9053V16H74.0146ZM71.8115 14.5625H72.7334V20.2812C72.7334 20.5417 72.7712 20.737 72.8467 20.8672C72.9248 20.9948 73.0238 21.0807 73.1436 21.125C73.266 21.1667 73.3949 21.1875 73.5303 21.1875C73.6318 21.1875 73.7152 21.1823 73.7803 21.1719C73.8454 21.1589 73.8975 21.1484 73.9365 21.1406L74.124 21.9687C74.0615 21.9922 73.9743 22.0156 73.8623 22.0391C73.7503 22.0651 73.6084 22.0781 73.4365 22.0781C73.1761 22.0781 72.9209 22.0221 72.6709 21.9102C72.4235 21.7982 72.2178 21.6276 72.0537 21.3984C71.8923 21.1693 71.8115 20.8802 71.8115 20.5312V14.5625ZM75.4014 22V16H76.3232V22H75.4014ZM75.8701 15C75.6904 15 75.5355 14.9388 75.4053 14.8164C75.2777 14.694 75.2139 14.5469 75.2139 14.375C75.2139 14.2031 75.2777 14.056 75.4053 13.9336C75.5355 13.8112 75.6904 13.75 75.8701 13.75C76.0498 13.75 76.2035 13.8112 76.3311 13.9336C76.4613 14.056 76.5264 14.2031 76.5264 14.375C76.5264 14.5469 76.4613 14.694 76.3311 14.8164C76.2035 14.9388 76.0498 15 75.8701 15ZM80.4492 22.125C79.9076 22.125 79.4323 21.9961 79.0234 21.7383C78.6172 21.4805 78.2995 21.1198 78.0703 20.6562C77.8438 20.1927 77.7305 19.651 77.7305 19.0312C77.7305 18.4062 77.8438 17.8607 78.0703 17.3945C78.2995 16.9284 78.6172 16.5664 79.0234 16.3086C79.4323 16.0508 79.9076 15.9219 80.4492 15.9219C80.9909 15.9219 81.4648 16.0508 81.8711 16.3086C82.2799 16.5664 82.5977 16.9284 82.8242 17.3945C83.0534 17.8607 83.168 18.4062 83.168 19.0312C83.168 19.651 83.0534 20.1927 82.8242 20.6562C82.5977 21.1198 82.2799 21.4805 81.8711 21.7383C81.4648 21.9961 80.9909 22.125 80.4492 22.125ZM80.4492 21.2969C80.8607 21.2969 81.1992 21.1914 81.4648 20.9805C81.7305 20.7695 81.9271 20.4922 82.0547 20.1484C82.1823 19.8047 82.2461 19.4323 82.2461 19.0312C82.2461 18.6302 82.1823 18.2565 82.0547 17.9102C81.9271 17.5638 81.7305 17.2839 81.4648 17.0703C81.1992 16.8568 80.8607 16.75 80.4492 16.75C80.0378 16.75 79.6992 16.8568 79.4336 17.0703C79.168 17.2839 78.9714 17.5638 78.8438 17.9102C78.7161 18.2565 78.6523 18.6302 78.6523 19.0312C78.6523 19.4323 78.7161 19.8047 78.8438 20.1484C78.9714 20.4922 79.168 20.7695 79.4336 20.9805C79.6992 21.1914 80.0378 21.2969 80.4492 21.2969ZM85.4971 18.3906V22H84.5752V16H85.4658V16.9375H85.5439C85.6846 16.6328 85.8981 16.388 86.1846 16.2031C86.471 16.0156 86.8408 15.9219 87.2939 15.9219C87.7002 15.9219 88.0557 16.0052 88.3604 16.1719C88.665 16.3359 88.902 16.5859 89.0713 16.9219C89.2406 17.2552 89.3252 17.6771 89.3252 18.1875V22H88.4033V18.25C88.4033 17.7786 88.2809 17.4115 88.0361 17.1484C87.7913 16.8828 87.4554 16.75 87.0283 16.75C86.734 16.75 86.471 16.8138 86.2393 16.9414C86.0101 17.069 85.8291 17.2552 85.6963 17.5C85.5635 17.7448 85.4971 18.0417 85.4971 18.3906ZM94.0879 22V21.2969L96.7285 18.4062C97.0384 18.0677 97.2936 17.7734 97.4941 17.5234C97.6947 17.2708 97.8431 17.0339 97.9395 16.8125C98.0384 16.5885 98.0879 16.3542 98.0879 16.1094C98.0879 15.8281 98.0202 15.5846 97.8848 15.3789C97.752 15.1732 97.5697 15.0143 97.3379 14.9023C97.1061 14.7904 96.8457 14.7344 96.5566 14.7344C96.2493 14.7344 95.9811 14.7982 95.752 14.9258C95.5254 15.0508 95.3496 15.2266 95.2246 15.4531C95.1022 15.6797 95.041 15.9453 95.041 16.25H94.1191C94.1191 15.7812 94.2272 15.3698 94.4434 15.0156C94.6595 14.6615 94.9538 14.3854 95.3262 14.1875C95.7012 13.9896 96.1217 13.8906 96.5879 13.8906C97.0566 13.8906 97.472 13.9896 97.834 14.1875C98.196 14.3854 98.4798 14.6523 98.6855 14.9883C98.8913 15.3242 98.9941 15.6979 98.9941 16.1094C98.9941 16.4036 98.9408 16.6914 98.834 16.9727C98.7298 17.2513 98.5475 17.5625 98.2871 17.9062C98.0293 18.2474 97.6712 18.6641 97.2129 19.1562L95.416 21.0781V21.1406H99.1348V22H94.0879Z" fill="white"/>
<defs>
<filter id="filter0_dd_12_146" x="40" y="40" width="167.188" height="220.52" filterUnits="userSpaceOnUse" color-interpolation-filters="sRGB">
<feFlood flood-opacity="0" result="BackgroundImageFix"/>
<feColorMatrix in="SourceAlpha" type="matrix" values="0 0 0 0 0 0 0 0 0 0 0 0 0 0 0 0 0 0 127 0" result="hardAlpha"/>
<feOffset dy="2"/>
<feGaussianBlur stdDeviation="1.5"/>
<feColorMatrix type="matrix" values="0 0 0 0 0 0 0 0 0 0 0 0 0 0 0 0 0 0 0.3 0"/>
<feBlend mode="normal" in2="BackgroundImageFix" result="effect1_dropShadow_12_146"/>
<feColorMatrix in="SourceAlpha" type="matrix" values="0 0 0 0 0 0 0 0 0 0 0 0 0 0 0 0 0 0 127 0" result="hardAlpha"/>
<feOffset dy="6"/>
<feGaussianBlur stdDeviation="5"/>
<feColorMatrix type="matrix" values="0 0 0 0 0 0 0 0 0 0 0 0 0 0 0 0 0 0 0.15 0"/>
<feBlend mode="normal" in2="effect1_dropShadow_12_146" result="effect2_dropShadow_12_146"/>
<feBlend mode="normal" in="SourceGraphic" in2="effect2_dropShadow_12_146" result="shape"/>
</filter>
</defs>
</svg>
