<svg width="480" height="240" viewBox="0 0 480 240" fill="none" xmlns="http://www.w3.org/2000/svg">

  <!-- ===== "0" RING — original position, unchanged ===== -->

  <!-- Flat (unfiltered) segments -->
  <path d="M150.758 42.5184C150.758 40.5184 150.758 35.1194 150.758 30.1195C137 30.1195 127.5 31.6194 113.5 39.6194C100 45.6194 86.9949 63.2151 81.5 78.6195C76.0052 94.0238 77.6012 115.915 77.5 130.619H113.5C113.736 121.78 112 90.6195 117.5 83.6195C122.5 75.1195 124.5 72.6195 132 68.1195C132 68.1195 137 64.1195 150.758 63.6194C150.758 63.6194 150.758 58.5184 150.758 56.5184V42.5184Z" fill="white"/>
  <path d="M151.112 218.24C151.112 220.24 151.112 225.639 151.112 230.639C164.871 230.639 174.371 229.139 188.371 221.139C201.871 215.139 214.876 197.543 220.371 182.139C225.866 166.734 224.27 144.843 224.371 130.139H188.371C188.134 138.978 189.871 170.139 184.371 177.139C179.371 185.639 177.371 188.139 169.871 192.639C169.871 192.639 164.871 196.639 151.112 197.139C151.112 197.139 151.112 202.24 151.112 204.24V218.24Z" fill="#10B981"/>
  <path d="M151.112 42.6379C151.112 40.6379 151.112 35.2389 151.112 30.2389C164.871 30.2389 174.371 31.7389 188.371 39.7389C201.871 45.7389 214.876 63.3345 220.371 78.7389C225.866 94.1433 224.27 116.035 224.371 130.739H188.371C188.134 121.9 189.871 90.7389 184.371 83.7389C179.371 75.2389 177.371 72.7389 169.871 68.2389C169.871 68.2389 164.871 64.2389 151.112 63.7389C151.112 63.7389 151.112 58.6379 151.112 56.6379V42.6379Z" fill="#10B981"/>
  <path d="M150.723 218.24C150.723 220.24 150.723 225.639 150.723 230.639C136.964 230.639 127.464 229.139 113.464 221.139C99.9643 215.139 86.9592 197.543 81.4643 182.139C75.9695 166.735 77.5655 144.843 77.4643 130.139H113.464C113.701 138.978 111.964 170.139 117.464 177.139C122.464 185.639 124.464 188.139 131.964 192.639C131.964 192.639 136.964 196.639 150.723 197.139C150.723 197.139 150.723 202.24 150.723 204.24V218.24Z" fill="#7C3AED"/>

  <!-- Shadowed/front segments -->
  <g filter="url(#filter0_dd_12_164)">
    <path d="M150.758 42.5184C150.758 40.5184 150.758 35.1194 150.758 30.1195C137 30.1195 127.5 31.6194 113.5 39.6194C100 45.6194 86.9949 63.2151 81.5 78.6195C76.0052 94.0238 77.6012 115.915 77.5 130.619H113.5C113.736 121.78 112 90.6195 117.5 83.6195C122.5 75.1195 124.5 72.6195 132 68.1195C132 68.1195 137 64.1195 150.758 63.6194C150.758 63.6194 150.758 58.5184 150.758 56.5184V42.5184Z" fill="#E6E6E6"/>
    <path d="M151.511 218.302C151.511 220.292 151.511 225.664 151.511 230.639C165.195 230.639 174.643 229.146 188.567 221.186C201.994 215.216 214.928 197.708 220.393 182.38C225.858 167.052 224.271 145.27 224.372 130.639H188.567C188.332 139.434 190.059 170.44 184.589 177.405C179.616 185.863 177.627 188.35 170.168 192.828C170.168 192.828 165.195 196.808 151.511 197.306C151.511 197.306 151.511 202.381 151.511 204.371V218.302Z" fill="#10B981"/>
    <path d="M151.112 42.6379C151.112 40.6379 151.112 35.2389 151.112 30.2389C164.871 30.2389 174.371 31.7389 188.371 39.7389C201.871 45.7389 214.876 63.3345 220.371 78.7389C225.866 94.1433 224.27 116.035 224.371 130.739H188.371C188.134 121.9 189.871 90.7389 184.371 83.7389C179.371 75.2389 177.371 72.7389 169.871 68.2389C169.871 68.2389 164.871 64.2389 151.112 63.7389C151.112 63.7389 151.112 58.6379 151.112 56.6379V42.6379Z" fill="#10B981"/>
    <path d="M150.723 218.302C150.723 220.292 150.723 225.664 150.723 230.639C136.964 230.639 127.464 229.146 113.464 221.186C99.9643 215.216 86.9592 197.708 81.4643 182.38C75.9695 167.052 77.5655 145.27 77.4643 130.639H113.464C113.701 139.434 111.964 170.44 117.464 177.405C122.464 185.863 124.464 188.35 131.964 192.828C131.964 192.828 136.964 196.808 150.723 197.306C150.723 197.306 150.723 202.381 150.723 204.371V218.302Z" fill="#FF383C" fill-opacity="0.14"/>
  </g>

  <!-- ===== "DAY ZERO" WORDMARK — moved to right of ring, vertically centred ===== -->
  <!-- Ring centre y ≈ 130. Text paths original y = 260–291, centre ≈ 275.5         -->
  <!-- translateX: ring right edge (224) + gap (28) - text left edge (54) = 198     -->
  <!-- translateY: 130 - 275.5 = -145.5                                              -->
  <g transform="translate(198, -145.5)">
    <path d="M53.7181 291V260.2H65.2461C68.1794 260.2 70.7901 260.816 73.0781 262.048C75.3661 263.265 77.1627 265.025 78.4681 267.328C79.7734 269.616 80.4261 272.373 80.4261 275.6C80.4261 278.827 79.7734 281.591 78.4681 283.894C77.1627 286.182 75.3661 287.942 73.0781 289.174C70.7901 290.391 68.1794 291 65.2461 291H53.7181ZM59.3501 285.984H65.2461C67.2407 285.984 68.9054 285.566 70.2401 284.73C71.5747 283.894 72.5794 282.699 73.2541 281.144C73.9287 279.589 74.2661 277.741 74.2661 275.6C74.2661 273.459 73.9287 271.611 73.2541 270.056C72.5794 268.501 71.5747 267.306 70.2401 266.47C68.9054 265.634 67.2407 265.216 65.2461 265.216H59.3501V285.984ZM101.678 283.696H88.7864V278.768H101.678V283.696ZM94.5064 265.7H95.9584L87.0704 291H81.6144L92.5704 260.2H97.8944L108.85 291H103.394L94.5064 265.7ZM116.618 291V278.548L105.794 260.2H111.954L120.754 275.82H118.114L126.914 260.2H133.074L122.25 278.548V291H116.618ZM142.936 291L158.688 263.456L159.656 265.216H144.916V260.2H166.388L150.636 287.744L149.668 285.984H166.168V291H142.936ZM170.077 291V260.2H189.789V265.656H175.841V272.212H186.665V277.668H175.841V285.544H190.229V291H170.077ZM195.085 291V260.2H206.349C208.476 260.2 210.331 260.537 211.915 261.212C213.514 261.887 214.753 262.913 215.633 264.292C216.513 265.671 216.953 267.416 216.953 269.528C216.953 271.787 216.469 273.583 215.501 274.918C214.548 276.238 213.287 277.287 211.717 278.064L218.669 291H212.377L206.437 279.56C206.393 279.56 206.357 279.56 206.327 279.56C206.298 279.56 206.261 279.56 206.217 279.56H200.717V291H195.085ZM200.717 274.852H204.853C207.171 274.852 208.784 274.383 209.693 273.444C210.603 272.491 211.057 271.288 211.057 269.836C211.057 268.296 210.61 267.093 209.715 266.228C208.821 265.348 207.273 264.908 205.073 264.908H200.717V274.852ZM235.96 291.616C233.027 291.616 230.416 290.956 228.128 289.636C225.84 288.301 224.044 286.439 222.738 284.048C221.433 281.643 220.78 278.827 220.78 275.6C220.78 272.373 221.433 269.565 222.738 267.174C224.044 264.769 225.84 262.906 228.128 261.586C230.416 260.251 233.027 259.584 235.96 259.584C238.894 259.584 241.504 260.251 243.792 261.586C246.08 262.906 247.877 264.769 249.182 267.174C250.488 269.565 251.14 272.373 251.14 275.6C251.14 278.827 250.488 281.643 249.182 284.048C247.877 286.439 246.08 288.301 243.792 289.636C241.504 290.956 238.894 291.616 235.96 291.616ZM235.96 286.16C238.014 286.16 239.73 285.705 241.108 284.796C242.487 283.887 243.521 282.64 244.21 281.056C244.9 279.457 245.244 277.639 245.244 275.6C245.244 273.561 244.9 271.75 244.21 270.166C243.521 268.567 242.487 267.313 241.108 266.404C239.73 265.495 238.014 265.04 235.96 265.04C233.907 265.04 232.191 265.495 230.812 266.404C229.434 267.313 228.4 268.567 227.71 270.166C227.021 271.75 226.676 273.561 226.676 275.6C226.676 277.639 227.021 279.457 227.71 281.056C228.4 282.64 229.434 283.887 230.812 284.796C232.191 285.705 233.907 286.16 235.96 286.16Z" fill="#595959"/>
  </g>

  <defs>
    <filter id="filter0_dd_12_164" x="67.3236" y="26.1195" width="167.188" height="220.52" filterUnits="userSpaceOnUse" color-interpolation-filters="sRGB">
      <feFlood flood-opacity="0" result="BackgroundImageFix"/>
      <feColorMatrix in="SourceAlpha" type="matrix" values="0 0 0 0 0 0 0 0 0 0 0 0 0 0 0 0 0 0 127 0" result="hardAlpha"/>
      <feOffset dy="2"/>
      <feGaussianBlur stdDeviation="1.5"/>
      <feColorMatrix type="matrix" values="0 0 0 0 0 0 0 0 0 0 0 0 0 0 0 0 0 0 0.3 0"/>
      <feBlend mode="normal" in2="BackgroundImageFix" result="effect1_dropShadow_12_164"/>
      <feColorMatrix in="SourceAlpha" type="matrix" values="0 0 0 0 0 0 0 0 0 0 0 0 0 0 0 0 0 0 127 0" result="hardAlpha"/>
      <feOffset dy="6"/>
      <feGaussianBlur stdDeviation="5"/>
      <feColorMatrix type="matrix" values="0 0 0 0 0 0 0 0 0 0 0 0 0 0 0 0 0 0 0.15 0"/>
      <feBlend mode="normal" in2="effect1_dropShadow_12_164" result="effect2_dropShadow_12_164"/>
      <feBlend mode="normal" in="SourceGraphic" in2="effect2_dropShadow_12_164" result="shape"/>
    </filter>
  </defs>

</svg>
