<svg width="282" height="296" viewBox="0 0 282 296" fill="none" xmlns="http://www.w3.org/2000/svg">
<path d="M140.31 40.2091C140.31 38.3178 140.31 33.212 140.31 28.4836C127.505 28.4836 118.663 29.9021 105.634 37.4676C93.0693 43.1417 80.9655 59.7817 75.8515 74.3494C70.7375 88.9171 72.2229 109.619 72.1287 123.525L105.634 123.525C105.854 115.166 104.238 85.6976 109.356 79.0778C114.01 71.0395 115.871 68.6753 122.851 64.4197C122.851 64.4197 127.505 60.6369 140.31 60.1641C140.31 60.1641 140.31 55.3401 140.31 53.4488L140.31 40.2091Z" fill="white"/>
<path d="M140.639 206.387C140.639 208.278 140.639 213.384 140.639 218.112C153.444 218.112 162.286 216.694 175.315 209.128C187.88 203.454 199.984 186.814 205.098 172.246C210.212 157.679 208.726 136.976 208.82 123.071L175.315 123.071C175.095 131.43 176.711 160.898 171.593 167.518C166.939 175.556 165.078 177.92 158.098 182.176C158.098 182.176 153.444 185.959 140.639 186.432C140.639 186.432 140.639 191.256 140.639 193.147L140.639 206.387Z" fill="#10B981"/>
<path d="M140.639 40.3221C140.639 38.4307 140.639 33.3249 140.639 28.5965C153.444 28.5965 162.286 30.015 175.315 37.5805C187.88 43.2547 199.984 59.8946 205.098 74.4623C210.212 89.03 208.726 109.732 208.82 123.638L175.315 123.638C175.095 115.279 176.711 85.8106 171.593 79.1908C166.939 71.1524 165.078 68.7882 158.098 64.5327C158.098 64.5327 153.444 60.7499 140.639 60.277C140.639 60.277 140.639 55.4531 140.639 53.5617L140.639 40.3221Z" fill="#10B981"/>
<path d="M140.277 206.387C140.277 208.278 140.277 213.384 140.277 218.112C127.472 218.112 118.63 216.694 105.6 209.128C93.0361 203.454 80.9323 186.814 75.8183 172.246C70.7042 157.679 72.1897 136.976 72.0955 123.071L105.6 123.071C105.82 131.43 104.204 160.898 109.323 167.518C113.977 175.556 115.838 177.92 122.818 182.176C122.818 182.176 127.472 185.959 140.277 186.432C140.277 186.432 140.277 191.256 140.277 193.147L140.277 206.387Z" fill="#7C3AED"/>
<g filter="url(#filter0_dd_12_163)">
<path d="M140.31 40.2091C140.31 38.3178 140.31 33.212 140.31 28.4836C127.505 28.4836 118.663 29.9021 105.634 37.4676C93.0693 43.1417 80.9655 59.7817 75.8515 74.3494C70.7375 88.9171 72.2229 109.619 72.1287 123.525L105.634 123.525C105.854 115.166 104.238 85.6976 109.356 79.0778C114.01 71.0395 115.871 68.6753 122.851 64.4197C122.851 64.4197 127.505 60.6369 140.31 60.1641C140.31 60.1641 140.31 55.3401 140.31 53.4488L140.31 40.2091Z" fill="#E6E6E6"/>
<path d="M141.011 206.445C141.011 208.327 141.011 213.407 141.011 218.112C153.746 218.112 162.539 216.701 175.498 209.173C187.994 203.527 200.032 186.97 205.118 172.475C210.205 157.979 208.727 137.38 208.821 123.543L175.498 123.543C175.279 131.861 176.887 161.183 171.796 167.77C167.168 175.768 165.316 178.12 158.374 182.355C158.374 182.355 153.746 186.119 141.011 186.589C141.011 186.589 141.011 191.389 141.011 193.271L141.011 206.445Z" fill="#10B981"/>
<path d="M140.639 40.3221C140.639 38.4307 140.639 33.325 140.639 28.5965C153.444 28.5965 162.286 30.0151 175.315 37.5806C187.88 43.2547 199.984 59.8946 205.098 74.4623C210.212 89.03 208.726 109.732 208.82 123.638L175.315 123.638C175.095 115.279 176.711 85.8106 171.593 79.1908C166.939 71.1524 165.078 68.7882 158.098 64.5327C158.098 64.5327 153.444 60.7499 140.639 60.277C140.639 60.277 140.639 55.4531 140.639 53.5617L140.639 40.3221Z" fill="#10B981"/>
<path d="M140.277 206.445C140.277 208.327 140.277 213.407 140.277 218.112C127.472 218.112 118.63 216.701 105.6 209.173C93.0361 203.527 80.9323 186.97 75.8183 172.475C70.7042 157.979 72.1897 137.38 72.0955 123.543L105.6 123.543C105.82 131.861 104.204 161.183 109.323 167.77C113.977 175.768 115.838 178.12 122.818 182.355C122.818 182.355 127.472 186.119 140.277 186.589C140.277 186.589 140.277 191.389 140.277 193.271L140.277 206.445Z" fill="#FF383C" fill-opacity="0.14"/>
</g>
<path d="M31 278.593V235.855H43.8256C47.0891 235.855 49.9936 236.709 52.5391 238.419C55.0847 240.108 57.0835 242.55 58.5358 245.745C59.9881 248.92 60.7142 252.746 60.7142 257.224C60.7142 261.701 59.9881 265.537 58.5358 268.732C57.0835 271.907 55.0847 274.349 52.5391 276.059C49.9936 277.748 47.0891 278.593 43.8256 278.593H31ZM37.2659 271.632H43.8256C46.0447 271.632 47.8968 271.052 49.3817 269.892C50.8665 268.732 51.9843 267.074 52.735 264.916C53.4855 262.759 53.8609 260.194 53.8609 257.224C53.8609 254.253 53.4855 251.689 52.735 249.531C51.9843 247.373 50.8665 245.715 49.3817 244.555C47.8968 243.395 46.0447 242.815 43.8256 242.815H37.2659V271.632ZM84.3582 268.458H70.0156V261.62H84.3582V268.458ZM76.3794 243.487H77.9948L68.1064 278.593H62.0363L74.2255 235.855H80.1488L92.3375 278.593H86.2674L76.3794 243.487ZM100.98 278.593V261.314L88.9375 235.855H95.7909L105.581 257.529H102.644L112.435 235.855H119.288L107.246 261.314V278.593H100.98ZM130.26 278.593L147.785 240.373L148.862 242.815H132.463V235.855H156.352L138.827 274.075L137.75 271.632H156.107V278.593H130.26ZM160.456 278.593V235.855H182.387V243.425H166.869V252.522H178.911V260.093H166.869V271.022H182.876V278.593H160.456ZM188.279 278.593V235.855H200.811C203.177 235.855 205.241 236.322 207.003 237.259C208.782 238.196 210.161 239.619 211.14 241.533C212.119 243.446 212.609 245.868 212.609 248.798C212.609 251.933 212.07 254.425 210.993 256.277C209.933 258.109 208.53 259.564 206.783 260.643L214.518 278.593H207.517L200.909 262.718C200.86 262.718 200.82 262.718 200.786 262.718C200.754 262.718 200.713 262.718 200.664 262.718H194.545V278.593H188.279ZM194.545 256.186H199.147C201.725 256.186 203.52 255.535 204.531 254.232C205.544 252.91 206.049 251.24 206.049 249.226C206.049 247.089 205.552 245.419 204.556 244.219C203.561 242.998 201.839 242.387 199.391 242.387H194.545V256.186ZM233.755 279.447C230.492 279.447 227.587 278.531 225.041 276.7C222.496 274.847 220.498 272.264 219.045 268.946C217.593 265.609 216.866 261.701 216.866 257.224C216.866 252.746 217.593 248.85 219.045 245.532C220.498 242.195 222.496 239.61 225.041 237.778C227.587 235.926 230.492 235 233.755 235C237.019 235 239.923 235.926 242.469 237.778C245.014 239.61 247.013 242.195 248.465 245.532C249.918 248.85 250.644 252.746 250.644 257.224C250.644 261.701 249.918 265.609 248.465 268.946C247.013 272.264 245.014 274.847 242.469 276.7C239.923 278.531 237.019 279.447 233.755 279.447ZM233.755 271.877C236.04 271.877 237.949 271.245 239.482 269.984C241.017 268.723 242.167 266.992 242.934 264.794C243.701 262.576 244.084 260.053 244.084 257.224C244.084 254.394 243.701 251.881 242.934 249.683C242.167 247.465 241.017 245.725 239.482 244.463C237.949 243.202 236.04 242.571 233.755 242.571C231.471 242.571 229.562 243.202 228.027 244.463C226.494 245.725 225.344 247.465 224.576 249.683C223.81 251.881 223.426 254.394 223.426 257.224C223.426 260.053 223.81 262.576 224.576 264.794C225.344 266.992 226.494 268.723 228.027 269.984C229.562 271.245 231.471 271.877 233.755 271.877Z" fill="#504C4C"/>
<defs>
<filter id="filter0_dd_12_163" x="57.9645" y="20.4836" width="164.987" height="217.629" filterUnits="userSpaceOnUse" color-interpolation-filters="sRGB">
<feFlood flood-opacity="0" result="BackgroundImageFix"/>
<feColorMatrix in="SourceAlpha" type="matrix" values="0 0 0 0 0 0 0 0 0 0 0 0 0 0 0 0 0 0 127 0" result="hardAlpha"/>
<feOffset dy="2"/>
<feGaussianBlur stdDeviation="1.5"/>
<feColorMatrix type="matrix" values="0 0 0 0 0 0 0 0 0 0 0 0 0 0 0 0 0 0 0.3 0"/>
<feBlend mode="normal" in2="BackgroundImageFix" result="effect1_dropShadow_12_163"/>
<feColorMatrix in="SourceAlpha" type="matrix" values="0 0 0 0 0 0 0 0 0 0 0 0 0 0 0 0 0 0 127 0" result="hardAlpha"/>
<feMorphology radius="4" operator="dilate" in="SourceAlpha" result="effect2_dropShadow_12_163"/>
<feOffset dy="6"/>
<feGaussianBlur stdDeviation="5"/>
<feColorMatrix type="matrix" values="0 0 0 0 0 0 0 0 0 0 0 0 0 0 0 0 0 0 0.15 0"/>
<feBlend mode="normal" in2="effect1_dropShadow_12_163" result="effect2_dropShadow_12_163"/>
<feBlend mode="normal" in="SourceGraphic" in2="effect2_dropShadow_12_163" result="shape"/>
</filter>
</defs>
</svg>
