<svg width="578" height="301" viewBox="0 0 578 301" fill="none" xmlns="http://www.w3.org/2000/svg">
<path d="M123.788 232.121C123.788 234.121 123.788 239.52 123.788 244.52C137.547 244.52 147.047 243.02 161.047 235.02C174.547 229.02 187.552 211.424 193.047 196.02C198.542 180.615 196.946 158.724 197.047 144.02H161.047C160.81 152.859 162.547 184.02 157.047 191.02C152.047 199.52 150.047 202.02 142.547 206.52C142.547 206.52 137.547 210.52 123.788 211.02C123.788 211.02 123.788 216.121 123.788 218.121V232.121Z" fill="#10B981"/>
<path d="M123.399 232.121C123.399 234.121 123.399 239.52 123.399 244.52C109.64 244.52 100.14 243.02 86.1404 235.02C72.6407 229.02 59.6356 211.424 54.1407 196.02C48.6459 180.616 50.2419 158.724 50.1407 144.02H86.1404C86.3774 152.859 84.6404 184.02 90.1404 191.02C95.1404 199.52 97.1404 202.02 104.64 206.52C104.64 206.52 109.64 210.52 123.399 211.02C123.399 211.02 123.399 216.121 123.399 218.121V232.121Z" fill="#7C3AED"/>
<g filter="url(#filter0_dd_12_146)">
<path d="M123.434 56.3989C123.434 54.3989 123.434 48.9999 123.434 44C109.676 44 100.176 45.4999 86.1764 53.4999C72.6764 59.4999 59.6713 77.0956 54.1764 92.5C48.6816 107.904 50.2776 129.796 50.1764 144.5H86.1764C86.4124 135.661 84.6764 104.5 90.1764 97.5C95.1764 89 97.1764 86.5 104.676 82C104.676 82 109.676 78 123.434 77.4999C123.434 77.4999 123.434 72.3989 123.434 70.3989V56.3989Z" fill="#E6E6E6"/>
<path d="M124.187 232.183C124.187 234.173 124.187 239.545 124.187 244.52C137.871 244.52 147.319 243.027 161.243 235.067C174.67 229.097 187.604 211.589 193.069 196.261C198.534 180.933 196.947 159.151 197.048 144.52H161.243C161.008 153.315 162.735 184.321 157.265 191.286C152.292 199.744 150.303 202.231 142.844 206.709C142.844 206.709 137.871 210.689 124.187 211.187C124.187 211.187 124.187 216.262 124.187 218.252V232.183Z" fill="#10B981"/>
<path d="M123.788 56.5184C123.788 54.5184 123.788 49.1194 123.788 44.1194C137.547 44.1194 147.047 45.6194 161.047 53.6194C174.547 59.6194 187.552 77.215 193.047 92.6194C198.542 108.024 196.946 129.915 197.047 144.619H161.047C160.81 135.78 162.547 104.619 157.047 97.6194C152.047 89.1194 150.047 86.6194 142.547 82.1194C142.547 82.1194 137.547 78.1194 123.788 77.6194C123.788 77.6194 123.788 72.5184 123.788 70.5184V56.5184Z" fill="#10B981"/>
<path d="M123.399 232.183C123.399 234.173 123.399 239.545 123.399 244.52C109.64 244.52 100.14 243.027 86.1404 235.067C72.6407 229.097 59.6356 211.589 54.1407 196.261C48.6459 180.933 50.2419 159.151 50.1407 144.52H86.1404C86.3774 153.315 84.6404 184.321 90.1404 191.286C95.1404 199.744 97.1404 202.231 104.64 206.709C104.64 206.709 109.64 210.689 123.399 211.187C123.399 211.187 123.399 216.262 123.399 218.252V232.183Z" fill="#FF383C" fill-opacity="0.14"/>
</g>
<path d="M123.434 56.3989C123.434 54.3989 123.434 48.9999 123.434 44C109.676 44 100.176 45.4999 86.1764 53.4999C72.6764 59.4999 59.6713 77.0956 54.1764 92.5C48.6816 107.904 50.2776 129.796 50.1764 144.5H86.1764C86.4124 135.661 84.6764 104.5 90.1764 97.5C95.1764 89 97.1764 86.5 104.676 82C104.676 82 109.676 78 123.434 77.4999C123.434 77.4999 123.434 72.3989 123.434 70.3989V56.3989Z" fill="white"/>
<path d="M123.788 56.5184C123.788 54.5184 123.788 49.1194 123.788 44.1194C137.547 44.1194 147.047 45.6194 161.047 53.6194C174.547 59.6194 187.552 77.215 193.047 92.6194C198.542 108.024 196.946 129.915 197.047 144.619H161.047C160.81 135.78 162.547 104.619 157.047 97.6194C152.047 89.1194 150.047 86.6194 142.547 82.1194C142.547 82.1194 137.547 78.1194 123.788 77.6194C123.788 77.6194 123.788 72.5184 123.788 70.5184V56.5184Z" fill="#10B981"/>
<path d="M234 175.712V111.288H251.635C256.122 111.288 260.115 112.577 263.615 115.154C267.115 117.699 269.864 121.381 271.861 126.198C273.857 130.984 274.856 136.75 274.856 143.5C274.856 150.25 273.857 156.031 271.861 160.848C269.864 165.634 267.115 169.315 263.615 171.892C260.115 174.438 256.122 175.712 251.635 175.712H234ZM242.615 165.22H251.635C254.686 165.22 257.232 164.345 259.274 162.597C261.316 160.848 262.852 158.349 263.885 155.096C264.917 151.844 265.433 147.978 265.433 143.5C265.433 139.022 264.917 135.156 263.885 131.904C262.852 128.651 261.316 126.152 259.274 124.403C257.232 122.655 254.686 121.78 251.635 121.78H242.615V165.22ZM307.365 160.434H287.645V150.126H307.365V160.434ZM296.395 122.793H298.616L285.02 175.712H276.673L293.433 111.288H301.577L318.336 175.712H309.99L296.395 122.793ZM330.219 175.712V149.666L313.661 111.288H323.085L336.546 143.96H332.508L345.969 111.288H355.392L338.835 149.666V175.712H330.219ZM370.478 175.712L394.574 118.099L396.055 121.78H373.507V111.288H406.353L382.257 168.901L380.776 165.22H406.017V175.712H370.478ZM411.996 175.712V111.288H442.15V122.701H420.814V136.413H437.371V147.826H420.814V164.299H442.823V175.712H411.996ZM450.252 175.712V111.288H467.482C470.736 111.288 473.574 111.993 475.997 113.405C478.443 114.817 480.338 116.963 481.684 119.847C483.03 122.732 483.703 126.382 483.703 130.799C483.703 135.525 482.963 139.281 481.482 142.073C480.025 144.834 478.096 147.029 475.694 148.654L486.328 175.712H476.704L467.617 151.783C467.55 151.783 467.495 151.783 467.449 151.783C467.404 151.783 467.348 151.783 467.28 151.783H458.867V175.712H450.252ZM458.867 141.935H465.194C468.74 141.935 471.207 140.954 472.598 138.99C473.99 136.997 474.684 134.481 474.684 131.444C474.684 128.223 474 125.706 472.631 123.897C471.264 122.056 468.896 121.136 465.53 121.136H458.867V141.935ZM512.779 177C508.292 177 504.298 175.619 500.798 172.858C497.298 170.066 494.551 166.171 492.553 161.17C490.557 156.14 489.558 150.25 489.558 143.5C489.558 136.75 490.557 130.877 492.553 125.876C494.551 120.845 497.298 116.948 500.798 114.187C504.298 111.395 508.292 110 512.779 110C517.267 110 521.26 111.395 524.76 114.187C528.26 116.948 531.009 120.845 533.005 125.876C535.003 130.877 536 136.75 536 143.5C536 150.25 535.003 156.14 533.005 161.17C531.009 166.171 528.26 170.066 524.76 172.858C521.26 175.619 517.267 177 512.779 177ZM512.779 165.588C515.921 165.588 518.546 164.636 520.654 162.735C522.763 160.834 524.345 158.225 525.399 154.912C526.455 151.568 526.981 147.765 526.981 143.5C526.981 139.235 526.455 135.447 525.399 132.134C524.345 128.789 522.763 126.166 520.654 124.265C518.546 122.364 515.921 121.412 512.779 121.412C509.638 121.412 507.013 122.364 504.904 124.265C502.796 126.166 501.214 128.789 500.159 132.134C499.105 135.447 498.577 139.235 498.577 143.5C498.577 147.765 499.105 151.568 500.159 154.912C501.214 158.225 502.796 160.834 504.904 162.735C507.013 164.636 509.638 165.588 512.779 165.588Z" fill="#595959"/>
<defs>
<filter id="filter0_dd_12_146" x="40" y="40" width="167.188" height="220.52" filterUnits="userSpaceOnUse" color-interpolation-filters="sRGB">
<feFlood flood-opacity="0" result="BackgroundImageFix"/>
<feColorMatrix in="SourceAlpha" type="matrix" values="0 0 0 0 0 0 0 0 0 0 0 0 0 0 0 0 0 0 127 0" result="hardAlpha"/>
<feOffset dy="2"/>
<feGaussianBlur stdDeviation="1.5"/>
<feColorMatrix type="matrix" values="0 0 0 0 0 0 0 0 0 0 0 0 0 0 0 0 0 0 0.3 0"/>
<feBlend mode="normal" in2="BackgroundImageFix" result="effect1_dropShadow_12_146"/>
<feColorMatrix in="SourceAlpha" type="matrix" values="0 0 0 0 0 0 0 0 0 0 0 0 0 0 0 0 0 0 127 0" result="hardAlpha"/>
<feOffset dy="6"/>
<feGaussianBlur stdDeviation="5"/>
<feColorMatrix type="matrix" values="0 0 0 0 0 0 0 0 0 0 0 0 0 0 0 0 0 0 0.15 0"/>
<feBlend mode="normal" in2="effect1_dropShadow_12_146" result="effect2_dropShadow_12_146"/>
<feBlend mode="normal" in="SourceGraphic" in2="effect2_dropShadow_12_146" result="shape"/>
</filter>
</defs>
</svg>
