<svg width="165" height="218" viewBox="40 36 165 218" fill="none" xmlns="http://www.w3.org/2000/svg">
  <!-- Flat back segments -->
  <path d="M123.788 232.121C123.788 234.121 123.788 239.52 123.788 244.52C137.547 244.52 147.047 243.02 161.047 235.02C174.547 229.02 187.552 211.424 193.047 196.02C198.542 180.615 196.946 158.724 197.047 144.02H161.047C160.81 152.859 162.547 184.02 157.047 191.02C152.047 199.52 150.047 202.02 142.547 206.52C142.547 206.52 137.547 210.52 123.788 211.02C123.788 211.02 123.788 216.121 123.788 218.121V232.121Z" fill="#10B981"/>
  <path d="M123.399 232.121C123.399 234.121 123.399 239.52 123.399 244.52C109.64 244.52 100.14 243.02 86.1404 235.02C72.6407 229.02 59.6356 211.424 54.1407 196.02C48.6459 180.616 50.2419 158.724 50.1407 144.02H86.1404C86.3774 152.859 84.6404 184.02 90.1404 191.02C95.1404 199.52 97.1404 202.02 104.64 206.52C104.64 206.52 109.64 210.52 123.399 211.02C123.399 211.02 123.399 216.121 123.399 218.121V232.121Z" fill="#7C3AED"/>
  <!-- Shadowed front segments -->
  <g filter="url(#ring-shadow)">
    <path d="M123.434 56.3989C123.434 54.3989 123.434 48.9999 123.434 44C109.676 44 100.176 45.4999 86.1764 53.4999C72.6764 59.4999 59.6713 77.0956 54.1764 92.5C48.6816 107.904 50.2776 129.796 50.1764 144.5H86.1764C86.4124 135.661 84.6764 104.5 90.1764 97.5C95.1764 89 97.1764 86.5 104.676 82C104.676 82 109.676 78 123.434 77.4999C123.434 77.4999 123.434 72.3989 123.434 70.3989V56.3989Z" fill="#E6E6E6"/>
    <path d="M124.187 232.183C124.187 234.173 124.187 239.545 124.187 244.52C137.871 244.52 147.319 243.027 161.243 235.067C174.67 229.097 187.604 211.589 193.069 196.261C198.534 180.933 196.947 159.151 197.048 144.52H161.243C161.008 153.315 162.735 184.321 157.265 191.286C152.292 199.744 150.303 202.231 142.844 206.709C142.844 206.709 137.871 210.689 124.187 211.187C124.187 211.187 124.187 216.262 124.187 218.252V232.183Z" fill="#10B981"/>
    <path d="M123.788 56.5184C123.788 54.5184 123.788 49.1194 123.788 44.1194C137.547 44.1194 147.047 45.6194 161.047 53.6194C174.547 59.6194 187.552 77.215 193.047 92.6194C198.542 108.024 196.946 129.915 197.047 144.619H161.047C160.81 135.78 162.547 104.619 157.047 97.6194C152.047 89.1194 150.047 86.6194 142.547 82.1194C142.547 82.1194 137.547 78.1194 123.788 77.6194C123.788 77.6194 123.788 72.5184 123.788 70.5184V56.5184Z" fill="#10B981"/>
    <path d="M123.399 232.183C123.399 234.173 123.399 239.545 123.399 244.52C109.64 244.52 100.14 243.027 86.1404 235.067C72.6407 229.097 59.6356 211.589 54.1407 196.261C48.6459 180.933 50.2419 159.151 50.1407 144.52H86.1404C86.3774 153.315 84.6404 184.321 90.1404 191.286C95.1404 199.744 97.1404 202.231 104.64 206.709C104.64 206.709 109.64 210.689 123.399 211.187C123.399 211.187 123.399 216.262 123.399 218.252V232.183Z" fill="#FF383C" fill-opacity="0.14"/>
  </g>
  <!-- Top white segment (front) -->
  <path d="M123.434 56.3989C123.434 54.3989 123.434 48.9999 123.434 44C109.676 44 100.176 45.4999 86.1764 53.4999C72.6764 59.4999 59.6713 77.0956 54.1764 92.5C48.6816 107.904 50.2776 129.796 50.1764 144.5H86.1764C86.4124 135.661 84.6764 104.5 90.1764 97.5C95.1764 89 97.1764 86.5 104.676 82C104.676 82 109.676 78 123.434 77.4999C123.434 77.4999 123.434 72.3989 123.434 70.3989V56.3989Z" fill="white"/>
  <path d="M123.788 56.5184C123.788 54.5184 123.788 49.1194 123.788 44.1194C137.547 44.1194 147.047 45.6194 161.047 53.6194C174.547 59.6194 187.552 77.215 193.047 92.6194C198.542 108.024 196.946 129.915 197.047 144.619H161.047C160.81 135.78 162.547 104.619 157.047 97.6194C152.047 89.1194 150.047 86.6194 142.547 82.1194C142.547 82.1194 137.547 78.1194 123.788 77.6194C123.788 77.6194 123.788 72.5184 123.788 70.5184V56.5184Z" fill="#10B981"/>
  <defs>
    <filter id="ring-shadow" x="40" y="40" width="167.188" height="220.52" filterUnits="userSpaceOnUse" color-interpolation-filters="sRGB">
      <feFlood flood-opacity="0" result="BackgroundImageFix"/>
      <feColorMatrix in="SourceAlpha" type="matrix" values="0 0 0 0 0 0 0 0 0 0 0 0 0 0 0 0 0 0 127 0" result="hardAlpha"/>
      <feOffset dy="2"/>
      <feGaussianBlur stdDeviation="1.5"/>
      <feColorMatrix type="matrix" values="0 0 0 0 0 0 0 0 0 0 0 0 0 0 0 0 0 0 0.3 0"/>
      <feBlend mode="normal" in2="BackgroundImageFix" result="effect1_dropShadow"/>
      <feColorMatrix in="SourceAlpha" type="matrix" values="0 0 0 0 0 0 0 0 0 0 0 0 0 0 0 0 0 0 127 0" result="hardAlpha"/>
      <feOffset dy="6"/>
      <feGaussianBlur stdDeviation="5"/>
      <feColorMatrix type="matrix" values="0 0 0 0 0 0 0 0 0 0 0 0 0 0 0 0 0 0 0.15 0"/>
      <feBlend mode="normal" in2="effect1_dropShadow" result="effect2_dropShadow"/>
      <feBlend mode="normal" in="SourceGraphic" in2="effect2_dropShadow" result="shape"/>
    </filter>
  </defs>
</svg>
