<svg xmlns="http://www.w3.org/2000/svg" width="183" height="262" viewBox="0 0 183 262" fill="none"><g clip-path="url(#clip0_12_146)">
<path d="M89 18.9281C89 16.5201 89 10.0198 89 4C73.2549 4 62.3828 5.80586 46.3607 15.4377C30.9108 22.6617 16.0273 43.8466 9.7388 62.3933C3.45036 80.9399 5.27688 107.297 5.16106 125H46.3607C46.6308 114.358 44.644 76.8412 50.9384 68.4133C56.6606 58.1794 58.9495 55.1694 67.5327 49.7515C67.5327 49.7515 73.2549 44.9355 89 44.3334C89 44.3334 89 38.1919 89 35.7839V18.9281Z" fill="white"></path>
<path d="M89 231.072C89 233.48 89 239.98 89 246C104.746 246 115.618 244.194 131.64 234.562C147.089 227.338 161.973 206.153 168.261 187.607C174.55 169.06 172.723 142.703 172.839 125H131.64C131.369 135.642 133.356 173.159 127.062 181.587C121.34 191.821 119.051 194.831 110.468 200.249C110.468 200.249 104.746 205.065 89 205.667C89 205.667 89 211.808 89 214.216V231.072Z" fill="#10B981"></path>
<path d="M89 18.9281C89 16.5202 89 10.0199 89 4C104.746 4 115.618 5.80597 131.64 15.4378C147.089 22.6617 161.973 43.8464 168.261 62.393C174.55 80.9395 172.723 107.297 172.839 125H131.64C131.369 114.358 133.356 76.8407 127.062 68.4129C121.34 58.1791 119.051 55.1691 110.468 49.7512C110.468 49.7512 104.746 44.9353 89 44.3333C89 44.3333 89 38.1918 89 35.7838V18.9281Z" fill="#10B981"></path>
<path d="M89 231.072C89 233.48 89 239.98 89 246C73.2539 246 62.3819 244.194 46.3599 234.562C30.9106 227.338 16.0272 206.153 9.73875 187.607C3.45037 169.061 5.27687 142.703 5.16106 125H46.3599C46.6312 135.642 44.6433 173.159 50.9376 181.587C56.6597 191.821 58.9486 194.831 67.5318 200.249C67.5318 200.249 73.2539 205.065 89 205.667C89 205.667 89 211.808 89 214.216V231.072Z" fill="#7C3AED"></path>
<g filter="url(#filter0_dd_12_146)">
<path d="M88.8177 18.9638C88.8177 16.5501 88.8177 10.0342 88.8177 4C73.1144 4 62.2711 5.81018 46.2916 15.4651C30.8828 22.7063 16.0388 43.9419 9.76697 62.533C3.49523 81.1239 5.3169 107.544 5.20139 125.289H46.2916C46.561 114.622 44.5795 77.0153 50.8572 68.5673C56.5642 58.3089 58.847 55.2918 67.4074 49.8609C67.4074 49.8609 73.1144 45.0334 88.8177 44.4299C88.8177 44.4299 88.8177 38.2736 88.8177 35.8599V18.9638Z" fill="#E6E6E6"></path>
<path d="M89.6772 231.111C89.6772 233.513 89.6772 239.996 89.6772 246C105.296 246 116.08 244.198 131.973 234.591C147.298 227.386 162.061 206.257 168.299 187.758C174.536 169.259 172.725 142.971 172.84 125.313H131.973C131.704 135.928 133.676 173.348 127.432 181.754C121.756 191.961 119.486 194.963 110.972 200.367C110.972 200.367 105.296 205.171 89.6772 205.772C89.6772 205.772 89.6772 211.896 89.6772 214.298V231.111Z" fill="#10B981"></path>
<path d="M89.2217 19.108C89.2217 16.6942 89.2217 10.1784 89.2217 4.14404C104.926 4.14404 115.769 5.95434 131.749 15.6093C147.158 22.8504 162.002 44.086 168.274 62.677C174.546 81.268 172.724 107.688 172.839 125.434H131.749C131.478 114.767 133.461 77.1594 127.183 68.7113C121.476 58.453 119.194 55.4358 110.633 50.0049C110.633 50.0049 104.926 45.1775 89.2217 44.574C89.2217 44.574 89.2217 38.4178 89.2217 36.0041V19.108Z" fill="#10B981"></path>
<path d="M88.7778 231.111C88.7778 233.513 88.7778 239.996 88.7778 246C73.0733 246 62.23 244.198 46.2505 234.591C30.842 227.386 15.9981 206.257 9.72621 187.758C3.45447 169.259 5.27614 142.971 5.16063 125.313H46.2505C46.521 135.928 44.5384 173.348 50.8161 181.754C56.5231 191.961 58.8059 194.963 67.3663 200.367C67.3663 200.367 73.0733 205.171 88.7778 205.772C88.7778 205.772 88.7778 211.896 88.7778 214.298V231.111Z" fill="#FF383C" fill-opacity="0.14"></path>
<path d="M89.4632 45.0334L89.4632 204.34" stroke="#595959" stroke-linecap="round"></path>
<line x1="89.5" y1="108.5" x2="89.5" y2="151.5" stroke="#595959" stroke-width="7" stroke-linecap="round"></line>
</g>
</g><defs>
<filter id="filter0_dd_12_146" x="-5" y="0" width="188" height="262" filterUnits="userSpaceOnUse" color-interpolation-filters="sRGB">
<feFlood flood-opacity="0" result="BackgroundImageFix"></feFlood>
<feColorMatrix in="SourceAlpha" type="matrix" values="0 0 0 0 0 0 0 0 0 0 0 0 0 0 0 0 0 0 127 0" result="hardAlpha"></feColorMatrix>
<feOffset dy="2"></feOffset>
<feGaussianBlur stdDeviation="1.5"></feGaussianBlur>
<feColorMatrix type="matrix" values="0 0 0 0 0 0 0 0 0 0 0 0 0 0 0 0 0 0 0.3 0"></feColorMatrix>
<feBlend mode="normal" in2="BackgroundImageFix" result="effect1_dropShadow_12_146"></feBlend>
<feColorMatrix in="SourceAlpha" type="matrix" values="0 0 0 0 0 0 0 0 0 0 0 0 0 0 0 0 0 0 127 0" result="hardAlpha"></feColorMatrix>
<feOffset dy="6"></feOffset>
<feGaussianBlur stdDeviation="5"></feGaussianBlur>
<feColorMatrix type="matrix" values="0 0 0 0 0 0 0 0 0 0 0 0 0 0 0 0 0 0 0.15 0"></feColorMatrix>
<feBlend mode="normal" in2="effect1_dropShadow_12_146" result="effect2_dropShadow_12_146"></feBlend>
<feBlend mode="normal" in="SourceGraphic" in2="effect2_dropShadow_12_146" result="shape"></feBlend>
</filter>
<clipPath id="clip0_12_146">
<rect width="248" height="301" fill="white"></rect>
</clipPath>
</defs></svg>